<?xml version="1.0" standalone="no"?>
<!DOCTYPE svg PUBLIC "-//W3C//DTD SVG 20010904//EN"
 "http://www.w3.org/TR/2001/REC-SVG-20010904/DTD/svg10.dtd">
<svg version="1.0" xmlns="http://www.w3.org/2000/svg"
 width="1000.000000pt" height="942.000000pt" viewBox="0 0 1000.000000 942.000000"
 preserveAspectRatio="xMidYMid meet">

<g transform="translate(0.000000,942.000000) scale(0.100000,-0.100000)"
fill="#000000" stroke="none">
<path d="M4961 9323 c-37 -68 -38 -73 -6 -73 32 0 34 -27 3 -33 l-23 -4 23 -8
22 -7 0 -363 0 -364 -22 -4 -23 -4 23 -8 22 -7 0 -363 0 -364 -22 -4 -23 -4
23 -8 22 -7 0 -363 0 -364 -22 -4 -23 -4 23 -8 22 -7 0 -364 c0 -317 -2 -364
-15 -364 -8 0 -15 -4 -15 -10 0 -5 7 -10 15 -10 13 0 15 -47 15 -361 l0 -362
-64 5 c-35 3 -79 13 -97 22 -17 9 -39 16 -47 16 -31 0 -140 68 -204 129 -265
248 -393 743 -472 1811 -28 373 -76 1443 -76 1687 0 49 -3 63 -15 63 -18 0
-19 -19 -5 -415 59 -1737 154 -2496 367 -2920 92 -185 231 -324 379 -381 40
-15 44 -20 44 -51 0 -26 -5 -36 -22 -43 -18 -7 -13 -9 27 -9 40 0 45 2 28 9
-17 7 -23 18 -23 41 0 26 3 30 18 24 9 -4 50 -9 90 -12 l72 -6 0 -358 0 -359
-550 -2 c-429 -2 -549 0 -546 9 3 7 1 15 -4 18 -6 4 -10 -1 -10 -9 0 -14 -58
-16 -545 -16 -538 0 -545 0 -545 20 0 11 -4 20 -10 20 -5 0 -10 -9 -10 -20 0
-20 -7 -20 -550 -20 -543 0 -550 0 -550 20 0 11 -4 20 -10 20 -5 0 -10 -9 -10
-20 0 -20 -7 -20 -544 -20 l-544 0 -7 23 -8 22 -4 -22 c-4 -21 -10 -22 -105
-25 -69 -2 -103 -7 -105 -15 -3 -9 23 -13 98 -15 101 -3 103 -4 110 -28 l6
-25 4 25 4 25 548 3 c536 2 547 2 547 -17 0 -11 5 -23 11 -27 8 -5 10 2 7 22
l-4 29 553 -3 553 -2 0 -26 c0 -14 4 -23 10 -19 6 3 10 15 10 26 0 18 20 19
1100 19 l1100 0 0 -365 c0 -318 -2 -365 -15 -365 -8 0 -15 -4 -15 -10 0 -5 7
-10 15 -10 13 0 15 -47 15 -364 l0 -365 -22 -4 -23 -4 23 -8 22 -7 0 -363 0
-364 -22 -4 -23 -4 23 -8 22 -7 0 -363 0 -363 -22 -7 -23 -8 23 -4 22 -4 0
-364 0 -364 -22 -4 -23 -4 23 -8 22 -7 0 -364 c0 -317 -2 -364 -15 -364 -8 0
-15 -4 -15 -10 0 -5 7 -10 15 -10 12 0 15 -14 15 -70 0 -63 2 -70 20 -70 18 0
20 7 20 70 0 56 3 70 15 70 8 0 15 5 15 10 0 6 -7 10 -15 10 -13 0 -15 47 -15
364 l0 364 23 7 22 8 -22 4 -23 4 0 364 0 364 23 4 22 4 -22 8 -23 7 0 363 0
363 23 7 22 8 -22 4 -23 4 0 364 0 363 23 7 22 8 -22 4 -23 4 0 365 c0 317 2
364 15 364 8 0 15 5 15 10 0 6 -7 10 -15 10 -13 0 -15 47 -15 365 l0 365 340
0 c333 0 340 0 340 -20 0 -11 5 -20 10 -20 6 0 10 9 10 20 0 19 7 20 188 20
122 0 192 -4 199 -11 8 -8 13 -8 17 0 5 8 170 11 552 11 532 0 544 0 544 -19
0 -11 5 -23 10 -26 6 -4 10 5 10 19 l0 26 550 0 c570 0 556 1 551 -39 -2 -7 2
-10 8 -6 6 3 11 15 11 26 0 19 11 19 547 17 l547 -3 7 -25 6 -25 4 25 c4 22
10 25 52 28 46 3 47 3 47 -27 0 -17 3 -31 6 -31 11 0 124 64 124 70 0 6 -113
70 -124 70 -3 0 -6 -11 -6 -25 0 -23 -3 -25 -49 -25 -43 0 -50 3 -54 23 l-4
22 -8 -22 -7 -23 -543 0 -544 0 -4 23 -4 22 -8 -22 -7 -23 -549 0 c-542 0
-549 0 -549 20 0 11 -4 20 -10 20 -5 0 -10 -9 -10 -20 0 -20 -7 -20 -545 -20
-487 0 -545 2 -545 16 0 8 -4 13 -10 9 -5 -3 -7 -11 -4 -18 3 -9 -42 -11 -195
-9 -195 3 -199 3 -206 25 l-8 22 -4 -22 -4 -23 -340 0 -339 0 0 350 c0 193 -1
353 -2 358 -2 4 29 10 69 13 222 20 422 176 546 424 213 425 308 1180 367
2920 14 396 13 415 -5 415 -12 0 -15 -14 -15 -63 0 -244 -48 -1314 -76 -1687
-79 -1069 -207 -1562 -473 -1813 -103 -96 -257 -167 -368 -167 l-43 0 0 360
c0 313 2 360 15 360 8 0 15 5 15 10 0 6 -7 10 -15 10 -13 0 -15 47 -15 364 l0
364 23 7 22 8 -22 4 -23 4 0 364 0 363 23 7 22 8 -22 4 -23 4 0 364 0 363 23
7 22 8 -22 4 -23 4 0 364 0 363 23 7 22 8 -22 4 c-32 6 -30 33 2 33 14 0 25 4
25 8 0 15 -61 122 -70 122 -5 0 -22 -26 -39 -57z"/>
<path d="M4766 9255 c-18 -19 -21 -67 -6 -96 16 -28 58 -25 72 6 14 32 -5 59
-39 52 -25 -5 -31 11 -11 31 8 8 17 8 31 1 15 -9 18 -8 15 3 -7 19 -43 21 -62
3z m52 -69 c4 -21 -14 -37 -35 -29 -14 5 -18 35 -6 47 12 12 38 1 41 -18z"/>
<path d="M1516 9058 c-3 -84 -13 -337 -21 -563 -56 -1496 -148 -2189 -345
-2590 -111 -228 -257 -359 -455 -410 -73 -19 -230 -19 -307 -1 -32 7 -60 11
-63 8 -11 -11 -4 -20 27 -33 23 -10 80 -14 193 -14 l160 0 110 54 c95 46 121
64 190 135 44 44 100 114 124 153 177 296 275 773 341 1658 30 416 35 524 75
1593 5 138 4 162 -8 162 -12 0 -16 -28 -21 -152z"/>
<path d="M8455 9048 c38 -1027 44 -1165 71 -1533 65 -922 165 -1417 345 -1718
24 -39 80 -108 124 -153 80 -81 89 -87 284 -178 36 -17 327 -15 369 3 31 13
38 22 27 33 -3 3 -31 -1 -63 -8 -77 -18 -234 -18 -307 1 -494 126 -684 719
-775 2410 -8 165 -16 362 -46 1143 -5 133 -9 162 -21 162 -12 0 -13 -24 -8
-162z"/>
<path d="M3882 9145 c0 -16 2 -22 5 -12 2 9 2 23 0 30 -3 6 -5 -1 -5 -18z"/>
<path d="M4757 8513 c-4 -3 -7 -20 -7 -36 0 -25 3 -29 21 -24 29 8 49 -2 49
-23 0 -23 -28 -34 -47 -19 -7 7 -17 9 -20 5 -10 -10 18 -26 45 -26 30 0 51 42
32 65 -7 8 -23 15 -36 15 -17 0 -24 6 -24 19 0 15 8 21 33 24 l32 4 -36 1
c-20 1 -39 -1 -42 -5z"/>
<path d="M4771 7723 l-31 -48 28 -3 c15 -2 33 -11 40 -20 11 -14 12 -14 12 0
0 9 6 19 13 21 10 4 10 6 0 6 -9 1 -13 17 -13 46 0 25 -4 45 -9 45 -5 0 -23
-21 -40 -47z m39 -13 c0 -26 -4 -30 -26 -30 l-25 0 21 30 c12 17 23 30 26 30
2 0 4 -13 4 -30z"/>
<path d="M4760 7006 c-14 -18 0 -22 18 -4 8 8 15 8 28 -3 15 -12 14 -15 -5
-30 -21 -17 -21 -18 -1 -24 11 -3 20 -12 20 -20 0 -18 -30 -28 -47 -14 -7 7
-17 9 -20 5 -11 -11 19 -26 46 -24 13 2 29 11 35 21 9 15 7 21 -8 33 -11 8
-14 14 -7 14 8 0 11 10 9 28 -2 21 -9 28 -29 30 -14 2 -31 -4 -39 -12z"/>
<path d="M4760 6256 c-15 -19 0 -22 18 -4 10 10 16 9 28 -4 15 -14 13 -19 -20
-56 -20 -21 -36 -42 -36 -46 0 -3 21 -5 48 -4 45 1 45 2 8 5 l-39 4 33 34 c39
40 39 78 -1 83 -14 2 -31 -4 -39 -12z"/>
<path d="M734 5196 c-12 -31 0 -61 25 -61 31 0 50 28 35 53 -14 22 -52 28 -60
8z m46 -26 c0 -32 -26 -43 -36 -15 -9 21 3 45 21 45 10 0 15 -10 15 -30z"/>
<path d="M360 5146 c-14 -18 0 -22 18 -4 8 8 15 8 28 -3 15 -12 14 -15 -5 -30
-21 -17 -21 -18 -1 -24 11 -3 20 -12 20 -20 0 -18 -30 -28 -47 -14 -7 7 -17 9
-20 5 -11 -11 19 -26 46 -24 13 2 29 11 35 21 9 15 7 21 -8 33 -11 8 -14 14
-7 14 8 0 11 10 9 28 -2 21 -9 28 -29 30 -14 2 -31 -4 -39 -12z"/>
<path d="M476 5145 c-18 -19 -21 -67 -6 -96 16 -28 58 -25 72 6 14 32 -5 59
-39 52 -25 -5 -31 11 -11 31 8 8 17 8 31 1 15 -9 18 -8 15 3 -7 19 -43 21 -62
3z m52 -69 c4 -21 -14 -37 -35 -29 -14 5 -18 35 -6 47 12 12 38 1 41 -18z"/>
<path d="M582 5148 c-7 -7 -12 -30 -12 -53 0 -66 44 -89 76 -40 37 57 -19 138
-64 93z m46 -10 c27 -27 3 -112 -26 -94 -16 10 -23 53 -12 80 11 29 20 32 38
14z"/>
<path d="M1844 5106 c-12 -31 0 -61 25 -61 31 0 50 28 35 53 -14 22 -52 28
-60 8z m46 -26 c0 -20 -5 -30 -15 -30 -18 0 -30 24 -21 45 10 28 36 17 36 -15z"/>
<path d="M2964 5106 c-12 -31 0 -61 25 -61 31 0 50 28 35 53 -14 22 -52 28
-60 8z m46 -26 c0 -32 -26 -43 -36 -15 -9 21 3 45 21 45 10 0 15 -10 15 -30z"/>
<path d="M4024 5106 c-12 -31 0 -61 25 -61 31 0 50 28 35 53 -14 22 -52 28
-60 8z m46 -26 c0 -20 -5 -30 -15 -30 -18 0 -30 24 -21 45 10 28 36 17 36 -15z"/>
<path d="M6204 5106 c-12 -31 0 -61 25 -61 31 0 50 28 35 53 -14 22 -52 28
-60 8z m46 -26 c0 -20 -5 -30 -15 -30 -18 0 -30 24 -21 45 10 28 36 17 36 -15z"/>
<path d="M7374 5106 c-12 -31 0 -61 25 -61 31 0 50 28 35 53 -14 22 -52 28
-60 8z m46 -26 c0 -20 -5 -30 -15 -30 -18 0 -30 24 -21 45 10 28 36 17 36 -15z"/>
<path d="M8484 5106 c-12 -31 0 -61 25 -61 31 0 50 28 35 53 -14 22 -52 28
-60 8z m46 -26 c0 -32 -26 -43 -36 -15 -9 21 3 45 21 45 10 0 15 -10 15 -30z"/>
<path d="M9604 5106 c-12 -31 0 -61 25 -61 31 0 50 28 35 53 -14 22 -52 28
-60 8z m46 -26 c0 -20 -5 -30 -15 -30 -18 0 -30 24 -21 45 10 28 36 17 36 -15z"/>
<path d="M3881 5084 c0 -13 9 -28 24 -38 39 -26 31 -106 -11 -106 -7 0 -11 8
-10 18 2 9 -2 20 -8 24 -8 5 -8 12 0 25 12 20 7 46 -7 37 -13 -8 -11 -88 3
-102 36 -36 85 13 74 73 -5 26 -13 36 -31 41 -14 3 -26 15 -28 27 l-4 22 -2
-21z"/>
<path d="M258 5073 c18 -2 45 -2 60 0 15 2 0 4 -33 4 -33 0 -45 -2 -27 -4z"/>
<path d="M1470 5046 c-15 -19 0 -22 18 -4 10 10 16 9 28 -4 15 -14 13 -19 -20
-56 -20 -21 -36 -42 -36 -46 0 -3 21 -5 48 -4 45 1 45 2 8 5 l-39 4 33 34 c39
40 39 78 -1 83 -14 2 -31 -4 -39 -12z"/>
<path d="M1598 5053 c38 -5 38 -7 11 -68 -11 -25 -18 -49 -15 -52 3 -4 7 -4 9
-2 6 9 47 115 47 122 0 4 -19 6 -42 5 -37 -1 -39 -2 -10 -5z"/>
<path d="M1692 5048 c-7 -7 -12 -30 -12 -53 0 -66 44 -89 76 -40 37 57 -19
138 -64 93z m46 -10 c27 -27 3 -112 -26 -94 -16 10 -23 53 -12 80 11 29 20 32
38 14z"/>
<path d="M2599 5043 c-12 -15 -12 -16 4 -10 15 5 17 0 17 -39 0 -37 -4 -46
-22 -54 -18 -7 -13 -9 27 -9 40 0 45 2 28 9 -20 8 -23 17 -23 65 0 57 -8 67
-31 38z"/>
<path d="M2700 5045 c-9 -11 -10 -19 -2 -27 8 -8 7 -16 -1 -29 -16 -25 2 -53
36 -57 28 -3 54 29 41 50 -4 6 -7 25 -8 42 -1 26 -6 32 -27 34 -14 2 -31 -4
-39 -13z m58 -12 c5 -17 -26 -29 -40 -15 -6 6 -7 15 -3 22 9 14 37 9 43 -7z
m-3 -63 c0 -16 -6 -26 -18 -28 -19 -4 -32 20 -23 44 9 25 41 13 41 -16z"/>
<path d="M2812 5048 c-16 -16 -16 -90 0 -106 35 -35 85 13 74 72 -8 43 -47 61
-74 34z m46 -10 c27 -27 3 -112 -26 -94 -16 10 -23 53 -12 80 11 29 20 32 38
14z"/>
<path d="M3762 5048 c-28 -28 -1 -75 38 -65 24 6 27 -15 5 -33 -12 -10 -19
-10 -27 -2 -17 17 -33 15 -18 -3 41 -50 103 34 66 90 -18 27 -45 32 -64 13z
m48 -13 c15 -18 6 -45 -15 -45 -18 0 -30 24 -21 45 7 19 20 19 36 0z"/>
<path d="M5942 5048 c-28 -28 -1 -75 38 -65 24 6 27 -15 5 -33 -12 -10 -19
-10 -27 -2 -17 17 -33 15 -18 -3 41 -50 103 34 66 90 -18 27 -45 32 -64 13z
m48 -13 c15 -18 6 -45 -15 -45 -18 0 -30 24 -21 45 7 19 20 19 36 0z"/>
<path d="M6052 5048 c-16 -16 -16 -90 0 -106 16 -16 43 -15 58 3 15 18 -1 20
-18 3 -9 -9 -15 -9 -24 0 -15 15 -16 78 0 94 16 16 49 -15 55 -51 4 -23 4 -22
6 7 0 17 -3 32 -9 32 -5 0 -7 6 -4 13 6 17 -48 21 -64 5z"/>
<path d="M7009 5043 c-12 -15 -12 -16 4 -10 15 5 17 0 17 -39 0 -37 -4 -46
-22 -54 -18 -7 -13 -9 27 -9 40 0 45 2 28 9 -20 8 -23 17 -23 65 0 57 -8 67
-31 38z"/>
<path d="M7110 5045 c-9 -11 -10 -19 -2 -27 8 -8 7 -16 -1 -29 -16 -25 2 -53
36 -57 28 -3 54 29 41 50 -4 6 -7 25 -8 42 -1 26 -6 32 -27 34 -14 2 -31 -4
-39 -13z m58 -12 c5 -17 -26 -29 -40 -15 -6 6 -7 15 -3 22 9 14 37 9 43 -7z
m-3 -63 c0 -29 -32 -41 -41 -16 -9 24 4 48 23 44 12 -2 18 -12 18 -28z"/>
<path d="M7222 5048 c-7 -7 -12 -30 -12 -53 0 -66 44 -89 76 -40 37 57 -19
138 -64 93z m46 -10 c27 -27 3 -112 -26 -94 -16 10 -23 53 -12 80 11 29 20 32
38 14z"/>
<path d="M8110 5046 c-15 -19 0 -22 18 -4 10 10 16 9 28 -4 15 -14 13 -19 -20
-56 -20 -21 -36 -42 -36 -46 0 -3 21 -5 48 -4 45 1 45 2 8 5 l-39 4 33 34 c39
40 39 78 -1 83 -14 2 -31 -4 -39 -12z"/>
<path d="M8238 5053 c36 -5 38 -12 18 -51 -22 -43 -28 -72 -17 -72 6 0 11 6
11 13 0 6 11 36 25 65 l24 52 -47 -2 c-37 -1 -40 -2 -14 -5z"/>
<path d="M8338 5049 c-13 -7 -18 -23 -18 -55 0 -38 4 -46 26 -56 23 -11 29
-10 46 12 15 18 18 34 14 59 -7 47 -32 62 -68 40z m40 -11 c17 -17 15 -73 -3
-88 -17 -14 -39 -4 -31 15 3 8 0 15 -7 18 -8 2 -7 12 2 35 15 35 21 38 39 20z"/>
<path d="M9230 5046 c-14 -18 0 -22 18 -4 8 8 15 8 28 -3 15 -12 14 -15 -5
-30 -21 -17 -21 -18 -1 -24 11 -3 20 -12 20 -20 0 -18 -30 -28 -47 -14 -7 7
-17 9 -20 5 -11 -11 19 -26 46 -24 13 2 29 11 35 21 9 15 7 21 -8 33 -11 8
-14 14 -7 14 8 0 11 10 9 28 -2 21 -9 28 -29 30 -14 2 -31 -4 -39 -12z"/>
<path d="M9346 5045 c-18 -19 -21 -67 -6 -96 16 -28 58 -25 72 6 14 32 -5 59
-39 52 -25 -5 -31 11 -11 31 8 8 17 8 31 1 15 -9 18 -8 15 3 -7 19 -43 21 -62
3z m52 -69 c4 -21 -14 -37 -35 -29 -14 5 -18 35 -6 47 12 12 38 1 41 -18z"/>
<path d="M9452 5048 c-7 -7 -12 -30 -12 -53 0 -66 44 -89 76 -40 37 57 -19
138 -64 93z m46 -10 c27 -27 3 -112 -26 -94 -16 10 -23 53 -12 80 11 29 20 32
38 14z"/>
<path d="M1368 4973 c18 -2 45 -2 60 0 15 2 0 4 -33 4 -33 0 -45 -2 -27 -4z"/>
<path d="M2488 4973 c18 -2 45 -2 60 0 15 2 0 4 -33 4 -33 0 -45 -2 -27 -4z"/>
<path d="M3658 4973 c18 -2 45 -2 60 0 15 2 0 4 -33 4 -33 0 -45 -2 -27 -4z"/>
<path d="M3883 4605 c0 -27 2 -38 4 -22 2 15 2 37 0 50 -2 12 -4 0 -4 -28z"/>
<path d="M6113 4575 c0 -44 2 -61 4 -37 2 23 2 59 0 80 -2 20 -4 1 -4 -43z"/>
<path d="M470 4476 c-15 -19 0 -22 18 -4 10 10 16 9 28 -4 15 -14 13 -19 -20
-56 -20 -21 -36 -42 -36 -46 0 -3 21 -5 48 -4 45 1 45 2 8 5 l-39 4 33 34 c39
40 39 78 -1 83 -14 2 -31 -4 -39 -12z"/>
<path d="M1480 4476 c-14 -18 0 -22 18 -4 8 8 15 8 28 -3 15 -12 14 -15 -5
-30 -21 -17 -21 -18 -1 -24 11 -3 20 -12 20 -20 0 -18 -30 -28 -47 -14 -7 7
-17 9 -20 5 -11 -11 19 -26 46 -24 13 2 29 11 35 21 9 15 7 21 -8 33 -11 8
-14 14 -7 14 8 0 11 10 9 28 -2 21 -9 28 -29 30 -14 2 -31 -4 -39 -12z"/>
<path d="M1607 4483 c-3 -4 -10 -27 -17 -51 -6 -24 -14 -50 -17 -58 -3 -8 -1
-14 4 -14 10 0 47 119 39 127 -2 2 -6 1 -9 -4z"/>
<path d="M1640 4476 c-15 -19 0 -22 18 -4 10 10 16 9 28 -4 15 -14 13 -19 -20
-56 -20 -21 -36 -42 -36 -46 0 -3 21 -5 48 -5 26 1 36 4 22 6 -51 8 -53 12
-20 39 40 34 39 77 -1 82 -14 2 -31 -4 -39 -12z"/>
<path d="M3719 4473 c-12 -15 -12 -16 4 -10 15 5 17 0 17 -39 0 -37 -4 -46
-22 -54 -18 -7 -13 -9 27 -9 40 0 45 2 28 9 -20 8 -23 17 -23 65 0 57 -8 67
-31 38z"/>
<path d="M3837 4483 c-3 -4 -10 -27 -17 -51 -6 -24 -14 -50 -17 -58 -3 -8 -1
-14 4 -14 10 0 47 119 39 127 -2 2 -6 1 -9 -4z"/>
<path d="M3870 4476 c-10 -13 -10 -16 3 -16 8 0 17 6 20 13 3 9 9 8 21 -4 16
-14 15 -17 -4 -41 -28 -36 -25 -46 5 -18 34 32 31 74 -6 78 -14 2 -31 -4 -39
-12z"/>
<path d="M5899 4473 c-12 -15 -12 -16 4 -10 15 5 17 0 17 -39 0 -37 -4 -46
-22 -54 -18 -7 -13 -9 27 -9 40 0 45 2 28 9 -20 8 -23 17 -23 65 0 57 -8 67
-31 38z"/>
<path d="M6017 4483 c-3 -4 -10 -27 -17 -51 -6 -24 -14 -50 -17 -58 -3 -8 -1
-14 4 -14 10 0 47 119 39 127 -2 2 -6 1 -9 -4z"/>
<path d="M6050 4475 c-15 -18 1 -20 18 -3 8 8 15 8 27 -2 12 -10 15 -10 15 4
0 21 -43 22 -60 1z"/>
<path d="M8120 4476 c-14 -18 0 -22 18 -4 8 8 15 8 28 -3 15 -12 14 -15 -5
-30 -21 -17 -21 -18 -1 -24 11 -3 20 -12 20 -20 0 -18 -30 -28 -47 -14 -7 7
-17 9 -20 5 -11 -11 19 -26 46 -24 13 2 29 11 35 21 9 15 7 21 -8 33 -11 8
-14 14 -7 14 8 0 11 10 9 28 -2 21 -9 28 -29 30 -14 2 -31 -4 -39 -12z"/>
<path d="M8247 4483 c-3 -4 -10 -27 -17 -51 -6 -24 -14 -50 -17 -58 -3 -8 -1
-14 4 -14 10 0 47 119 39 127 -2 2 -6 1 -9 -4z"/>
<path d="M8280 4476 c-15 -19 0 -22 18 -4 10 10 16 9 28 -4 15 -14 13 -19 -20
-56 -20 -21 -36 -42 -36 -46 0 -3 21 -5 48 -4 44 1 44 2 9 5 l-38 4 31 36 c38
42 37 77 -1 81 -14 2 -31 -4 -39 -12z"/>
<path d="M9340 4476 c-15 -19 0 -22 18 -4 10 10 16 9 28 -4 15 -14 13 -19 -20
-56 -20 -21 -36 -42 -36 -46 0 -3 21 -5 48 -4 45 1 45 2 8 5 l-39 4 33 34 c39
40 39 78 -1 83 -14 2 -31 -4 -39 -12z"/>
<path d="M579 4451 c10 -6 12 -21 8 -50 -3 -23 -1 -41 3 -41 5 0 12 20 16 45
7 52 34 64 34 16 0 -41 9 -61 28 -61 12 0 13 3 4 12 -16 16 -15 75 1 81 6 3
-15 6 -48 6 -38 0 -55 -2 -46 -8z"/>
<path d="M1799 4451 c10 -6 12 -21 8 -50 -3 -23 -1 -41 3 -41 5 0 12 20 16 45
7 52 34 64 34 16 0 -41 9 -61 28 -61 12 0 13 3 4 12 -16 16 -15 75 1 81 6 3
-15 6 -48 6 -38 0 -55 -2 -46 -8z"/>
<path d="M2749 4451 c10 -6 12 -21 8 -50 -3 -23 -1 -41 3 -41 5 0 12 20 16 45
7 52 34 64 34 16 0 -41 9 -61 28 -61 12 0 13 3 4 12 -16 16 -15 75 1 81 6 3
-15 6 -48 6 -38 0 -55 -2 -46 -8z"/>
<path d="M4029 4451 c10 -6 12 -21 8 -50 -3 -23 -1 -41 3 -41 5 0 12 20 16 45
7 52 34 64 34 16 0 -41 9 -61 28 -61 12 0 13 3 4 12 -16 16 -15 75 1 81 6 3
-15 6 -48 6 -38 0 -55 -2 -46 -8z"/>
<path d="M6209 4451 c10 -6 12 -21 8 -50 -3 -23 -1 -41 3 -41 5 0 12 20 16 45
7 52 34 64 34 16 0 -41 9 -61 28 -61 12 0 13 3 4 12 -16 16 -15 75 1 81 6 3
-15 6 -48 6 -38 0 -55 -2 -46 -8z"/>
<path d="M7159 4451 c10 -6 12 -21 8 -50 -3 -23 -1 -41 3 -41 5 0 12 20 16 45
7 52 34 64 34 16 0 -41 9 -61 28 -61 12 0 13 3 4 12 -16 16 -15 75 1 81 6 3
-15 6 -48 6 -38 0 -55 -2 -46 -8z"/>
<path d="M8439 4451 c10 -6 12 -21 8 -50 -3 -23 -1 -41 3 -41 5 0 12 20 16 45
7 52 34 64 34 16 0 -41 9 -61 28 -61 12 0 13 3 4 12 -16 16 -15 75 1 81 6 3
-15 6 -48 6 -38 0 -55 -2 -46 -8z"/>
<path d="M9449 4451 c10 -6 12 -21 8 -50 -3 -23 -1 -41 3 -41 5 0 12 20 16 45
7 52 34 64 34 16 0 -41 9 -61 28 -61 12 0 13 3 4 12 -16 16 -15 75 1 81 6 3
-15 6 -48 6 -38 0 -55 -2 -46 -8z"/>
<path d="M6073 4410 c-18 -20 -33 -40 -33 -44 0 -3 17 -5 38 -5 35 1 36 2 8 8
l-30 6 30 26 c28 24 42 50 27 48 -5 0 -23 -18 -40 -39z"/>
<path d="M368 4403 c18 -2 45 -2 60 0 15 2 0 4 -33 4 -33 0 -45 -2 -27 -4z"/>
<path d="M1378 4403 c18 -2 45 -2 60 0 15 2 0 4 -33 4 -33 0 -45 -2 -27 -4z"/>
<path d="M2648 4403 c18 -2 45 -2 60 0 15 2 0 4 -33 4 -33 0 -45 -2 -27 -4z"/>
<path d="M3608 4403 c18 -2 45 -2 60 0 15 2 0 4 -33 4 -33 0 -45 -2 -27 -4z"/>
<path d="M3867 4383 c-17 -16 -4 -23 41 -21 40 1 42 2 12 5 -19 3 -37 9 -41
14 -3 5 -8 6 -12 2z"/>
<path d="M3883 4315 c0 -22 2 -30 4 -17 2 12 2 30 0 40 -3 9 -5 -1 -4 -23z"/>
<path d="M6113 4310 c0 -25 2 -35 4 -22 2 12 2 32 0 45 -2 12 -4 2 -4 -23z"/>
<path d="M4769 4003 c-12 -15 -12 -16 4 -10 15 5 17 0 17 -39 0 -37 -4 -46
-22 -54 -18 -7 -13 -9 27 -9 41 0 46 2 27 10 -16 6 -23 16 -22 31 4 46 0 88
-9 88 -5 0 -15 -8 -22 -17z"/>
<path d="M2625 3964 c-97 -25 -208 -82 -293 -152 -96 -79 -209 -263 -276 -450
-158 -443 -247 -1335 -292 -2914 -6 -208 -5 -238 8 -238 13 0 16 37 22 248 48
1746 153 2645 359 3057 58 117 106 183 190 261 121 113 255 166 422 167 327 1
560 -208 699 -626 152 -461 226 -1219 282 -2904 5 -170 9 -203 21 -203 17 0
16 35 -12 760 -51 1279 -126 1942 -266 2364 -69 206 -150 346 -260 452 -75 72
-119 101 -220 145 -71 31 -80 32 -219 35 -80 1 -154 0 -165 -2z"/>
<path d="M7075 3961 c-47 -13 -153 -60 -199 -88 -59 -38 -162 -139 -206 -203
-251 -368 -360 -1061 -425 -2700 -28 -726 -29 -760 -12 -760 12 0 16 34 21
208 53 1652 130 2439 282 2899 139 418 372 627 699 626 166 -1 305 -56 426
-170 81 -77 128 -142 186 -258 206 -409 311 -1308 359 -3057 6 -211 9 -248 22
-248 13 0 14 30 8 238 -39 1379 -112 2228 -231 2702 -111 441 -267 669 -537
782 -69 29 -82 31 -218 34 -80 2 -158 -1 -175 -5z"/>
<path d="M4698 3943 c6 -2 18 -2 25 0 6 3 1 5 -13 5 -14 0 -19 -2 -12 -5z"/>
<path d="M4760 3256 c-15 -19 0 -22 18 -4 10 10 16 9 28 -4 15 -14 13 -19 -20
-56 -20 -21 -36 -42 -36 -46 0 -3 21 -5 48 -4 45 1 45 2 8 5 l-39 4 33 34 c39
40 39 78 -1 83 -14 2 -31 -4 -39 -12z"/>
<path d="M4698 3193 c6 -2 18 -2 25 0 6 3 1 5 -13 5 -14 0 -19 -2 -12 -5z"/>
<path d="M4760 2506 c-14 -18 0 -22 18 -4 8 8 15 8 28 -3 15 -12 14 -15 -5
-30 -21 -17 -21 -18 -1 -24 11 -3 20 -12 20 -20 0 -18 -30 -28 -47 -14 -7 7
-17 9 -20 5 -11 -11 19 -26 46 -24 13 2 29 11 35 21 9 15 7 21 -8 33 -11 8
-14 14 -7 14 8 0 11 10 9 28 -2 21 -9 28 -29 30 -14 2 -31 -4 -39 -12z"/>
<path d="M4698 2443 c6 -2 18 -2 25 0 6 3 1 5 -13 5 -14 0 -19 -2 -12 -5z"/>
<path d="M4771 1723 l-31 -48 28 -3 c15 -2 33 -11 40 -20 11 -14 12 -14 12 0
0 9 6 19 13 21 10 4 10 6 0 6 -9 1 -13 17 -13 46 0 25 -4 45 -9 45 -5 0 -23
-21 -40 -47z m39 -13 c0 -26 -4 -30 -26 -30 l-25 0 21 30 c12 17 23 30 26 30
2 0 4 -13 4 -30z"/>
<path d="M4698 1693 c6 -2 18 -2 25 0 6 3 1 5 -13 5 -14 0 -19 -2 -12 -5z"/>
<path d="M4757 1013 c-4 -3 -7 -20 -7 -36 0 -25 3 -29 21 -24 29 8 49 -2 49
-23 0 -23 -28 -34 -47 -19 -7 7 -17 9 -20 5 -10 -10 18 -26 45 -26 30 0 51 42
32 65 -7 8 -23 15 -36 15 -17 0 -24 6 -24 19 0 15 8 21 33 24 l32 4 -36 1
c-20 1 -39 -1 -42 -5z"/>
<path d="M4698 943 c6 -2 18 -2 25 0 6 3 1 5 -13 5 -14 0 -19 -2 -12 -5z"/>
<path d="M4766 165 c-18 -19 -21 -67 -6 -96 16 -28 58 -25 72 6 14 32 -5 59
-39 52 -25 -5 -31 11 -11 31 8 8 17 8 31 1 15 -9 18 -8 15 3 -7 19 -43 21 -62
3z m52 -69 c4 -21 -14 -37 -35 -29 -14 5 -18 35 -6 47 12 12 38 1 41 -18z"/>
<path d="M4698 103 c6 -2 18 -2 25 0 6 3 1 5 -13 5 -14 0 -19 -2 -12 -5z"/>
</g>
</svg>
